<?xml version="1.0" encoding="utf-8"?>
<svg version="1.1" xmlns:xlink="http://www.w3.org/1999/xlink" width="44px" height="39px" xmlns="http://www.w3.org/2000/svg">
  <g transform="matrix(1 0 0 1 -98 -45 )">
    <path d="M 19.8052884615385 3.34599156118144  C 20.1402243589744 3.69338959212377  20.3076923076923 4.10478199718706  21 4.58016877637131  L 21 34.4198312236287  C 20.3076923076923 34.8952180028129  20.1402243589744 35.3066104078762  19.8052884615385 35.6540084388186  C 19.4703525641026 36.0014064697609  19.0737179487179 36.1751054852321  18.6153846153846 36.1751054852321  C 18.1570512820513 36.1751054852321  17.7604166666667 36.0014064697609  17.4254807692308 35.6540084388186  L 8.62019230769231 26.5210970464135  L 1.69230769230769 26.5210970464135  C 1.23397435897436 26.5210970464135  0.837339743589744 26.3473980309423  0.502403846153846 26  C 0.167467948717949 25.6526019690577  0 25.2412095639944  0 24.7658227848101  L 0 14.2341772151899  C 0 13.7587904360056  0.167467948717949 13.3473980309423  0.502403846153846 13  C 0.837339743589744 12.6526019690577  1.23397435897436 12.4789029535865  1.69230769230769 12.4789029535865  L 8.62019230769231 12.4789029535865  L 17.4254807692308 3.34599156118144  C 17.7604166666667 2.9985935302391  18.1570512820513 2.82489451476793  18.6153846153846 2.82489451476793  C 19.0737179487179 2.82489451476793  19.4703525641026 2.9985935302391  19.8052884615385 3.34599156118144  Z M 29.3377403846154 15.6054852320675  C 30.0869391025641 16.8122362869198  30.4615384615385 18.1104078762307  30.4615384615385 19.5  C 30.4615384615385 20.8895921237693  30.0869391025641 22.1831926863572  29.3377403846154 23.3808016877637  C 28.5885416666667 24.5784106891702  27.5969551282051 25.4331926863572  26.3629807692308 25.9451476793249  C 26.1866987179487 26.0365682137834  25.9663461538462 26.0822784810127  25.7019230769231 26.0822784810127  C 25.2435897435897 26.0822784810127  24.8469551282051 25.9131504922644  24.5120192307692 25.5748945147679  C 24.1770833333333 25.2366385372714  24.0096153846154 24.8206751054852  24.0096153846154 24.3270042194093  C 24.0096153846154 23.9430379746835  24.1153846153846 23.6184950773558  24.3269230769231 23.3533755274262  C 24.5384615384615 23.0882559774965  24.7940705128205 22.8597046413502  25.09375 22.6677215189873  C 25.3934294871795 22.4757383966245  25.693108974359 22.2654711673699  25.9927884615385 22.0369198312236  C 26.2924679487179 21.8083684950774  26.5480769230769 21.4792545710267  26.7596153846154 21.0495780590717  C 26.9711538461538 20.6199015471167  27.0769230769231 20.1033755274262  27.0769230769231 19.5  C 27.0769230769231 18.8966244725738  26.9711538461538 18.3800984528833  26.7596153846154 17.9504219409283  C 26.5480769230769 17.5207454289733  26.2924679487179 17.1916315049226  25.9927884615385 16.9630801687764  C 25.693108974359 16.7345288326301  25.3934294871795 16.5242616033755  25.09375 16.3322784810127  C 24.7940705128205 16.1402953586498  24.5384615384615 15.9117440225035  24.3269230769231 15.6466244725738  C 24.1153846153846 15.3815049226442  24.0096153846154 15.0569620253165  24.0096153846154 14.6729957805907  C 24.0096153846154 14.1793248945148  24.1770833333333 13.7633614627285  24.5120192307692 13.4251054852321  C 24.8469551282051 13.0868495077356  25.2435897435897 12.9177215189873  25.7019230769231 12.9177215189873  C 25.9663461538462 12.9177215189873  26.1866987179487 12.9634317862166  26.3629807692308 13.0548523206751  C 27.5969551282051 13.5485232067511  28.5885416666667 14.3987341772152  29.3377403846154 15.6054852320675  Z M 34.9831730769231 11.7521097046413  C 36.4815705128205 14.1199015471167  37.2307692307692 16.7025316455696  37.2307692307692 19.5  C 37.2307692307692 22.2974683544304  36.4815705128205 24.8800984528833  34.9831730769231 27.2478902953586  C 33.4847756410256 29.615682137834  31.5016025641026 31.3389592123769  29.0336538461538 32.4177215189873  C 28.8044871794872 32.5091420534458  28.5841346153846 32.5548523206751  28.3725961538462 32.5548523206751  C 27.8966346153846 32.5548523206751  27.4911858974359 32.3811533052039  27.15625 32.0337552742616  C 26.8213141025641 31.6863572433193  26.6538461538462 31.274964838256  26.6538461538462 30.7995780590717  C 26.6538461538462 30.0864978902954  26.9975961538462 29.5471167369902  27.6850961538462 29.1814345991561  C 28.6722756410256 28.6511954992968  29.3421474358974 28.2489451476793  29.6947115384615 27.9746835443038  C 30.9991987179487 26.9873417721519  32.0172275641026 25.7485935302391  32.7487980769231 24.2584388185654  C 33.4803685897436 22.7682841068917  33.8461538461538 21.1821378340366  33.8461538461538 19.5  C 33.8461538461538 17.8178621659634  33.4803685897436 16.2317158931083  32.7487980769231 14.7415611814346  C 32.0172275641026 13.2514064697609  30.9991987179487 12.0126582278481  29.6947115384615 11.0253164556962  C 29.3421474358974 10.7510548523207  28.6722756410256 10.3488045007032  27.6850961538462 9.81856540084388  C 26.9975961538462 9.45288326300984  26.6538461538462 8.91350210970464  26.6538461538462 8.20042194092827  C 26.6538461538462 7.72503516174402  26.8213141025641 7.31364275668073  27.15625 6.9662447257384  C 27.4911858974359 6.61884669479606  27.8878205128205 6.4451476793249  28.3461538461538 6.4451476793249  C 28.5753205128205 6.4451476793249  28.8044871794872 6.49085794655414  29.0336538461538 6.58227848101266  C 31.5016025641026 7.66104078762306  33.4847756410256 9.38431786216596  34.9831730769231 11.7521097046413  Z M 40.6418269230769 7.91244725738397  C 42.880608974359 11.4321378340366  44 15.2946554149086  44 19.5  C 44 23.7053445850914  42.880608974359 27.5678621659634  40.6418269230769 31.087552742616  C 38.4030448717949 34.6072433192686  35.4238782051282 37.1990154711674  31.7043269230769 38.8628691983122  C 31.4751602564103 38.9542897327707  31.2459935897436 39  31.0168269230769 39  C 30.5584935897436 39  30.161858974359 38.8263009845288  29.8269230769231 38.4789029535865  C 29.4919871794872 38.1315049226442  29.3245192307692 37.7201125175809  29.3245192307692 37.2447257383966  C 29.3245192307692 36.5864978902954  29.6682692307692 36.0471167369902  30.3557692307692 35.626582278481  C 30.4791666666667 35.5534458509142  30.677483974359 35.4574542897328  30.9507211538462 35.3386075949367  C 31.2239583333333 35.2197609001406  31.4222756410256 35.1237693389592  31.5456730769231 35.0506329113924  C 32.3565705128205 34.5935302390999  33.0793269230769 34.1272855133615  33.7139423076923 33.6518987341772  C 35.8822115384615 31.9880450070323  37.5745192307692 29.9127988748242  38.7908653846154 27.4261603375527  C 40.0072115384615 24.9395218002813  40.6153846153846 22.2974683544304  40.6153846153846 19.5  C 40.6153846153846 16.7025316455696  40.0072115384615 14.0604781997187  38.7908653846154 11.5738396624473  C 37.5745192307692 9.08720112517581  35.8822115384615 7.01195499296765  33.7139423076923 5.34810126582278  C 33.0793269230769 4.87271448663854  32.3565705128205 4.40646976090014  31.5456730769231 3.94936708860759  C 31.4222756410256 3.87623066104078  31.2239583333333 3.78023909985935  30.9507211538462 3.66139240506329  C 30.677483974359 3.54254571026723  30.4791666666667 3.44655414908579  30.3557692307692 3.37341772151899  C 29.6682692307692 2.95288326300984  29.3245192307692 2.41350210970464  29.3245192307692 1.75527426160338  C 29.3245192307692 1.27988748241912  29.4919871794872 0.868495077355833  29.8269230769231 0.521097046413502  C 30.161858974359 0.173699015471166  30.5584935897436 0  31.0168269230769 0  C 31.2459935897436 0  31.4751602564103 0.0457102672292521  31.7043269230769 0.137130801687765  C 35.4238782051282 1.80098452883262  38.4030448717949 4.39275668073136  40.6418269230769 7.91244725738397  Z " fill-rule="nonzero" fill="#d9001b" stroke="none" transform="matrix(1 0 0 1 98 45 )" />
  </g>
</svg>